<?xml version="1.0" encoding="UTF-8" standalone="no"?>
<svg
   height="12"
   viewBox="0 0 12 12"
   width="12"
   version="1.1"
   id="svg4"
   sodipodi:docname="monitor.svg"
   inkscape:version="1.2.2 (b0a8486541, 2022-12-01)"
   xmlns:inkscape="http://www.inkscape.org/namespaces/inkscape"
   xmlns:sodipodi="http://sodipodi.sourceforge.net/DTD/sodipodi-0.dtd"
   xmlns="http://www.w3.org/2000/svg"
   xmlns:svg="http://www.w3.org/2000/svg">
  <defs
     id="defs8" />
  <sodipodi:namedview
     id="namedview6"
     pagecolor="#ffffff"
     bordercolor="#666666"
     borderopacity="1.0"
     inkscape:showpageshadow="2"
     inkscape:pageopacity="0.0"
     inkscape:pagecheckerboard="0"
     inkscape:deskcolor="#d1d1d1"
     showgrid="false"
     inkscape:zoom="38.22796"
     inkscape:cx="-3.8845913"
     inkscape:cy="6.3827628"
     inkscape:window-width="1856"
     inkscape:window-height="1005"
     inkscape:window-x="0"
     inkscape:window-y="32"
     inkscape:window-maximized="1"
     inkscape:current-layer="svg4" />
  <path
     d="M 0.51029644,0.0010143 A 0.74993628,0.74993628 0 0 0 3.3976341e-4,0.75095058 V 8.2503134 A 0.74993628,0.74993628 0 0 0 0.75027605,9.0002497 H 4.4999575 V 10.500122 H 3.0000849 c -0.8249299,0 -1.4998726,0.674943 -1.4998726,1.499873 h 8.9992357 c 0,-0.82493 -0.6749429,-1.499873 -1.4998728,-1.499873 H 7.4997026 V 9.0002497 H 11.249384 A 0.74993628,0.74993628 0 0 0 11.99932,8.2503134 V 0.75095058 A 0.74993628,0.74993628 0 0 0 11.249384,0.0010143 H 0.75027605 a 0.74993628,0.74993628 0 0 0 -0.13498853,0 0.74993628,0.74993628 0 0 0 -0.0899924,0 z M 1.5002123,1.5008869 H 10.499448 V 7.5003771 H 1.5002123 Z"
     id="path2"
     style="stroke-width:1.49987;fill:#9096ea;fill-opacity:1" />
</svg>
