<?xml version="1.0" encoding="UTF-8" standalone="no"?>
<svg
   width="24"
   height="24"
   viewBox="0 0 24 24"
   fill="none"
   stroke="currentColor"
   stroke-width="2"
   stroke-linecap="round"
   stroke-linejoin="round"
   class="feather feather-type"
   version="1.1"
   id="svg8"
   sodipodi:docname="fontmanage.svg"
   inkscape:version="1.2.2 (b0a8486541, 2022-12-01)"
   xmlns:inkscape="http://www.inkscape.org/namespaces/inkscape"
   xmlns:sodipodi="http://sodipodi.sourceforge.net/DTD/sodipodi-0.dtd"
   xmlns="http://www.w3.org/2000/svg"
   xmlns:svg="http://www.w3.org/2000/svg">
  <defs
     id="defs12" />
  <sodipodi:namedview
     id="namedview10"
     pagecolor="#ffffff"
     bordercolor="#000000"
     borderopacity="0.25"
     inkscape:showpageshadow="2"
     inkscape:pageopacity="0.0"
     inkscape:pagecheckerboard="0"
     inkscape:deskcolor="#d1d1d1"
     showgrid="false"
     inkscape:zoom="32"
     inkscape:cx="10.515625"
     inkscape:cy="8.9375"
     inkscape:window-width="1863"
     inkscape:window-height="1021"
     inkscape:window-x="0"
     inkscape:window-y="30"
     inkscape:window-maximized="1"
     inkscape:current-layer="svg8" />
  <g
     aria-label="F"
     id="text1759"
     style="font-size:26.548px;fill:#000000;stroke:none;stroke-width:40.4923"
     transform="translate(-2.7254162,-1.0048313)" />
  <path
     style="fill:#000000;fill-opacity:1;stroke:none;stroke-width:18.303;stroke-dasharray:none;stroke-opacity:1"
     d="M 20.173011,9.1981336 19.884592,17.459844"
     id="path1898" />
  <path
     style="fill:#000000;fill-opacity:1;stroke:none;stroke-width:18.303;stroke-dasharray:none;stroke-opacity:1"
     d="M 19.695858,8.4408889 V 16.575745"
     id="path1902" />
  <path
     style="fill:#000000;fill-opacity:1;stroke:none;stroke-width:18.303;stroke-dasharray:none;stroke-opacity:1"
     d="M 15.993924,19.149928 21.047535,8.9207493"
     id="path1904" />
  <path
     style="fill:#000000;fill-opacity:1;stroke:none;stroke-width:18.303;stroke-dasharray:none;stroke-opacity:1"
     d="M 23.491971,12.336128 20.665378,8.4831639"
     id="path1906" />
  <path
     style="fill:#000000;fill-opacity:1;stroke:none;stroke-width:18.303;stroke-dasharray:none;stroke-opacity:1"
     d="M 20.168852,14.680202 20.512117,8.7156554"
     id="path1908" />
  <path
     style="fill:#000000;fill-opacity:1;stroke:none;stroke-width:18.303;stroke-dasharray:none;stroke-opacity:1"
     d="M 20.321972,8.4131934 V 17.614537"
     id="path1914" />
  <path
     style="fill:#000000;fill-opacity:1;stroke:none;stroke-width:18.303;stroke-dasharray:none;stroke-opacity:1"
     d="M 20.507095,9.4028553 20.031166,16.514694"
     id="path1920" />
  <path
     style="fill:#000000;fill-opacity:1;stroke:none;stroke-width:18.303;stroke-dasharray:none;stroke-opacity:1"
     d="M 20.859445,16.492767 20.327038,9.7515426"
     id="path1922" />
  <path
     style="fill:#000000;fill-opacity:1;stroke:none;stroke-width:18.303;stroke-dasharray:none;stroke-opacity:1"
     d="M 20.837596,9.2903576 19.091182,16.74919"
     id="path1924" />
  <path
     style="fill:#000000;fill-opacity:1;stroke:none;stroke-width:18.303;stroke-dasharray:none;stroke-opacity:1"
     d="M 21.033902,9.3844159 18.765201,17.812191"
     id="path1938" />
  <path
     style="fill:#000000;fill-opacity:1;stroke:none;stroke-width:18.303;stroke-dasharray:none;stroke-opacity:1"
     d="M 21.066961,8.7850999 18.811256,17.203507"
     id="path1940" />
  <path
     style="fill:#000000;fill-opacity:1;stroke:none;stroke-width:18.303;stroke-dasharray:none;stroke-opacity:1"
     d="m 20.813438,11.581582 -1.158244,6.54303"
     id="path1946" />
  <path
     style="fill:#000000;fill-opacity:1;stroke:none;stroke-width:18.303;stroke-dasharray:none;stroke-opacity:1"
     d="M 18.522918,8.3054526 18.672575,20.786356"
     id="path1954" />
  <path
     style="fill:#000000;fill-opacity:1;stroke:none;stroke-width:18.303;stroke-dasharray:none;stroke-opacity:1"
     d="M 18.3371,8.1418351 19.492145,20.851121"
     id="path1958" />
  <path
     id="path1970"
     style="fill:#808080;fill-opacity:1;stroke:none;stroke-width:18.303;stroke-dasharray:none;stroke-opacity:1"
     d="m 8.1261458,3.2041531 c -0.152149,0.00132 -0.302981,0.0053 -0.455078,0.00977 C 7.3528328,3.2232639 7.0341001,3.2498096 6.71599,3.2627468 6.301382,3.2796085 5.9972506,3.1720989 5.6613026,3.4658718 5.4563371,3.6451057 5.4182997,3.9405273 5.3370838,4.1826687 4.9723816,5.2700105 5.0791267,5.8731135 5.3058338,6.9521999 c 0.079896,0.3802926 0.2321489,0.745939 0.2910156,1.1308594 0.063142,0.4128751 0.091841,0.6670489 0.2109375,1.0546874 0.024057,0.0783 0.025191,0.155483 0.074219,0.222656 0.020866,0.02859 0.6378531,-0.229551 0.6777343,-0.24414 C 7.2494358,8.8639669 7.9640798,8.6943923 8.6515368,8.4326687 9.0124538,8.2952629 9.3813608,8.1185536 9.7296618,7.9561062 9.8810108,7.8855173 10.014569,7.7928803 10.173022,7.7354031 10.637318,7.5669842 11.12382,7.4507336 11.589037,7.2861843 12.680808,6.9000202 13.6824,6.1787692 14.251146,5.1494656 14.352534,4.9659763 14.587322,4.1302475 14.512865,3.8818875 14.437886,3.6317858 14.392275,3.6040194 14.3781,3.5830593 14.270715,3.564396 14.162824,3.549184 14.055834,3.5283718 13.71369,3.4618162 13.375119,3.3732151 13.030443,3.3213406 12.4843,3.2391448 11.860386,3.2758733 11.321459,3.2686062 10.256978,3.2542524 9.1911948,3.1949219 8.1261458,3.2041531 Z M 14.3781,3.5830593 14.462084,3.2178249 c -0.07588,0.3276348 -0.10042,0.3409328 -0.08398,0.3652344 z m -3.185547,0.2988282 c 0.06712,1.172e-4 0.132983,0.00428 0.21289,0.019531 0.06584,0.012567 0.293716,0.052659 0.341797,0.066406 0.376521,0.1076459 0.08181,0.4983887 -0.0918,0.625 -0.467482,0.3409096 -1.086738,0.4335938 -1.652343,0.4335938 -0.1684582,0 -0.6130032,0.020742 -0.7460942,-0.1445312 C 9.0933318,4.678635 9.2720188,4.3472528 9.3624748,4.1709499 9.6958028,4.0441363 10.050146,3.963468 10.40349,3.9150906 c 0.323383,-0.044275 0.276912,-0.018729 0.570313,-0.027344 0.08269,-0.00243 0.151629,-0.00598 0.21875,-0.00586 z M 6.3675899,20.472792 h -2.38932 V 1.5175194 H 14.570922 V 3.6148115 H 6.3675899 V 10.331456 H 14.06651 v 2.097292 H 6.3675899 Z M 14.013526,9.2809302 c 1.476731,0.6756864 2.973221,1.3107298 4.473155,1.9337918 0.346611,0.14398 0.675165,0.317855 1.016159,0.473161 0.148975,0.06785 0.297522,0.130038 0.442991,0.202777 0.01741,0.0087 0.08385,0.0035 0.09417,0.01366 0.04899,0.04835 -0.07732,0.11537 -0.127662,0.162308 -0.156448,0.145856 -0.315988,0.28885 -0.48332,0.422078 -0.579341,0.461264 -1.225074,0.84558 -1.813064,1.297265 -0.874271,0.6716 -1.643454,1.458625 -2.487376,2.162761 -0.269631,0.224969 -0.520384,0.477586 -0.807005,0.678978 -0.03468,0.02436 -0.04266,0.07882 -0.08041,0.0966 -0.07644,0.03599 0,-0.168974 0,-0.253461 0,-0.192855 -0.02219,-0.382381 -0.0378,-0.574573 -0.05944,-0.732132 -0.153112,-1.472107 -0.153112,-2.20699 0,-0.442224 -0.02008,-0.865654 -0.04098,-1.304464 -0.02723,-0.571505 0.02769,-1.145126 2.72e-4,-1.718135 -0.01138,-0.237691 -0.04868,-0.488273 -0.0759,-0.7243405 -0.01217,-0.1055706 -0.06809,-0.2084655 -0.05535,-0.3139691 0.0149,-0.1233831 0.09016,-0.2316328 0.135234,-0.3474492 z" />
</svg>
