<?xml version="1.0" encoding="UTF-8" standalone="no"?>
<svg
   height="16px"
   viewBox="0 0 16 16"
   width="16px"
   version="1.1"
   id="svg4"
   sodipodi:docname="star-large-symbolic.svg"
   inkscape:version="1.2.2 (b0a8486541, 2022-12-01)"
   xmlns:inkscape="http://www.inkscape.org/namespaces/inkscape"
   xmlns:sodipodi="http://sodipodi.sourceforge.net/DTD/sodipodi-0.dtd"
   xmlns="http://www.w3.org/2000/svg"
   xmlns:svg="http://www.w3.org/2000/svg">
  <defs
     id="defs8" />
  <sodipodi:namedview
     id="namedview6"
     pagecolor="#ffffff"
     bordercolor="#000000"
     borderopacity="0.25"
     inkscape:showpageshadow="2"
     inkscape:pageopacity="0.0"
     inkscape:pagecheckerboard="0"
     inkscape:deskcolor="#d1d1d1"
     showgrid="false"
     inkscape:zoom="52.9375"
     inkscape:cx="8"
     inkscape:cy="8.0188902"
     inkscape:window-width="1863"
     inkscape:window-height="1028"
     inkscape:window-x="0"
     inkscape:window-y="24"
     inkscape:window-maximized="1"
     inkscape:current-layer="svg4" />
  <path
     d="m 7.980469 0.0078125 c -0.429688 0 -0.8125 0.2734375 -0.949219 0.6835935 l -1.449219 4.339844 l -4.589843 -0.015625 c -0.9804692 -0.003906 -1.382813 1.257813 -0.582032 1.820313 l 3.625 2.554687 l -1.5 4.285156 c -0.316406 0.902344 0.6875 1.691407 1.492188 1.171875 l 4.003906 -2.59375 l 3.894531 2.585938 c 0.800781 0.53125 1.816407 -0.257813 1.5 -1.160156 l -1.503906 -4.289063 l 3.644531 -2.578125 c 0.789063 -0.5625 0.394532 -1.808594 -0.574218 -1.8125 l -4.660157 -0.015625 l -1.402343 -4.285156 c -0.132813 -0.410157 -0.515626 -0.6875002 -0.949219 -0.6914065 z m 0 0"
     fill="#222222"
     id="path2"
     style="fill:#808080" />
</svg>
